<mxfile host="app.diagrams.net" agent="Mozilla/5.0 (Windows NT 10.0; Win64; x64) AppleWebKit/537.36 (KHTML, like Gecko) Chrome/131.0.0.0 Safari/537.36" version="25.0.1">
  <diagram name="Page-1" id="dN8_6ENDUjSBBLUcKlPB">
    <mxGraphModel dx="875" dy="475" grid="1" gridSize="10" guides="1" tooltips="1" connect="1" arrows="1" fold="1" page="1" pageScale="1" pageWidth="850" pageHeight="1100" background="#ffffff" math="0" shadow="0">
      <root>
        <mxCell id="0" />
        <mxCell id="1" parent="0" />
        <mxCell id="FthU4NVJ7ODYGOHPvPlJ-1" value="" style="edgeStyle=orthogonalEdgeStyle;rounded=0;orthogonalLoop=1;jettySize=auto;html=1;shadow=1;" edge="1" parent="1" source="FthU4NVJ7ODYGOHPvPlJ-2" target="FthU4NVJ7ODYGOHPvPlJ-4">
          <mxGeometry relative="1" as="geometry" />
        </mxCell>
        <mxCell id="FthU4NVJ7ODYGOHPvPlJ-2" value="&lt;font style=&quot;font-size: 20px;&quot;&gt;&lt;b style=&quot;&quot;&gt;Start&lt;/b&gt;&lt;/font&gt;" style="ellipse;whiteSpace=wrap;html=1;aspect=fixed;fillColor=#d5e8d4;strokeColor=#82b366;shadow=1;" vertex="1" parent="1">
          <mxGeometry x="25" y="40" width="80" height="80" as="geometry" />
        </mxCell>
        <mxCell id="FthU4NVJ7ODYGOHPvPlJ-3" value="" style="edgeStyle=orthogonalEdgeStyle;rounded=0;orthogonalLoop=1;jettySize=auto;html=1;shadow=1;" edge="1" parent="1" source="FthU4NVJ7ODYGOHPvPlJ-4" target="FthU4NVJ7ODYGOHPvPlJ-6">
          <mxGeometry relative="1" as="geometry" />
        </mxCell>
        <mxCell id="FthU4NVJ7ODYGOHPvPlJ-4" value="&lt;b&gt;&lt;font&gt;int r , Area&lt;/font&gt;&lt;/b&gt;" style="rounded=0;whiteSpace=wrap;html=1;fillColor=#dae8fc;strokeColor=#6c8ebf;fontSize=15;shadow=1;" vertex="1" parent="1">
          <mxGeometry x="155" y="50" width="160" height="60" as="geometry" />
        </mxCell>
        <mxCell id="FthU4NVJ7ODYGOHPvPlJ-5" value="" style="edgeStyle=orthogonalEdgeStyle;rounded=0;orthogonalLoop=1;jettySize=auto;html=1;shadow=1;" edge="1" parent="1" source="FthU4NVJ7ODYGOHPvPlJ-6" target="FthU4NVJ7ODYGOHPvPlJ-8">
          <mxGeometry relative="1" as="geometry" />
        </mxCell>
        <mxCell id="FthU4NVJ7ODYGOHPvPlJ-6" value="print &quot; enter circle radius :&quot;" style="shape=parallelogram;perimeter=parallelogramPerimeter;whiteSpace=wrap;html=1;fixedSize=1;fillColor=#f5f5f5;strokeColor=#666666;fontColor=#333333;rounded=0;fontSize=15;fontStyle=1;shadow=1;" vertex="1" parent="1">
          <mxGeometry x="117.5" y="210" width="235" height="60" as="geometry" />
        </mxCell>
        <mxCell id="FthU4NVJ7ODYGOHPvPlJ-33" value="" style="edgeStyle=orthogonalEdgeStyle;rounded=0;orthogonalLoop=1;jettySize=auto;html=1;" edge="1" parent="1" source="FthU4NVJ7ODYGOHPvPlJ-8" target="FthU4NVJ7ODYGOHPvPlJ-32">
          <mxGeometry relative="1" as="geometry" />
        </mxCell>
        <mxCell id="FthU4NVJ7ODYGOHPvPlJ-8" value="get r" style="shape=parallelogram;perimeter=parallelogramPerimeter;whiteSpace=wrap;html=1;fixedSize=1;fillColor=#f5f5f5;strokeColor=#666666;fontColor=#333333;rounded=0;fontSize=15;fontStyle=1;shadow=1;" vertex="1" parent="1">
          <mxGeometry x="150" y="320" width="170" height="60" as="geometry" />
        </mxCell>
        <mxCell id="FthU4NVJ7ODYGOHPvPlJ-9" value="&lt;h3&gt;&lt;p&gt;&lt;/p&gt;&lt;/h3&gt;&lt;h3&gt;&lt;p&gt;&lt;/p&gt;&lt;/h3&gt;&lt;h3&gt;&lt;p&gt;&lt;/p&gt;&lt;/h3&gt;&lt;h3&gt;&lt;strong&gt;Problem 4: Calculate the Area of a Circle&lt;/strong&gt;&lt;/h3&gt;&lt;p&gt;&lt;/p&gt;" style="text;html=1;align=center;verticalAlign=middle;whiteSpace=wrap;rounded=0;" vertex="1" parent="1">
          <mxGeometry x="170" y="10" width="340" height="30" as="geometry" />
        </mxCell>
        <mxCell id="FthU4NVJ7ODYGOHPvPlJ-24" value="&lt;font style=&quot;font-size: 20px;&quot;&gt;&lt;b style=&quot;&quot;&gt;End&lt;/b&gt;&lt;/font&gt;" style="ellipse;whiteSpace=wrap;html=1;aspect=fixed;fillColor=#f8cecc;strokeColor=#b85450;shadow=1;" vertex="1" parent="1">
          <mxGeometry x="445" y="50" width="80" height="80" as="geometry" />
        </mxCell>
        <mxCell id="FthU4NVJ7ODYGOHPvPlJ-35" value="" style="edgeStyle=orthogonalEdgeStyle;rounded=0;orthogonalLoop=1;jettySize=auto;html=1;" edge="1" parent="1" source="FthU4NVJ7ODYGOHPvPlJ-32" target="FthU4NVJ7ODYGOHPvPlJ-34">
          <mxGeometry relative="1" as="geometry" />
        </mxCell>
        <mxCell id="FthU4NVJ7ODYGOHPvPlJ-32" value="Area = Ï€ * (r^2)" style="whiteSpace=wrap;html=1;fontSize=15;fillColor=#dae8fc;strokeColor=#6c8ebf;rounded=0;fontStyle=1;shadow=1;" vertex="1" parent="1">
          <mxGeometry x="425" y="320" width="120" height="60" as="geometry" />
        </mxCell>
        <mxCell id="FthU4NVJ7ODYGOHPvPlJ-36" value="" style="edgeStyle=orthogonalEdgeStyle;rounded=0;orthogonalLoop=1;jettySize=auto;html=1;" edge="1" parent="1" source="FthU4NVJ7ODYGOHPvPlJ-34" target="FthU4NVJ7ODYGOHPvPlJ-24">
          <mxGeometry relative="1" as="geometry" />
        </mxCell>
        <mxCell id="FthU4NVJ7ODYGOHPvPlJ-34" value="print Area" style="shape=parallelogram;perimeter=parallelogramPerimeter;whiteSpace=wrap;html=1;fixedSize=1;fillColor=#f5f5f5;strokeColor=#666666;fontColor=#333333;rounded=0;fontSize=15;fontStyle=1;shadow=1;" vertex="1" parent="1">
          <mxGeometry x="367.5" y="210" width="235" height="60" as="geometry" />
        </mxCell>
      </root>
    </mxGraphModel>
  </diagram>
</mxfile>
